<svg width="480" height="480" viewBox="0 0 480 480" xmlns="http://www.w3.org/2000/svg">
  <defs>
    <linearGradient id="skin" x1="0" y1="0" x2="0" y2="1">
      <stop offset="0%" stop-color="#e8b892"/>
      <stop offset="100%" stop-color="#d29b6e"/>
    </linearGradient>
    <linearGradient id="hair" x1="0" y1="0" x2="0" y2="1">
      <stop offset="0%" stop-color="#1c1c1c"/>
      <stop offset="100%" stop-color="#0a0a0a"/>
    </linearGradient>
  </defs>

  <circle cx="240" cy="240" r="220" fill="#141414"/>

  <path d="M150 300 Q150 420 240 430 Q330 420 330 300 L330 250 Q330 150 240 150 Q150 150 150 250 Z" fill="url(#skin)"/>

  <path d="M140 220 Q135 120 240 100 Q345 120 340 220 Q330 160 240 155 Q150 160 140 220 Z" fill="url(#hair)"/>

  <ellipse cx="195" cy="260" rx="12" ry="16" fill="#1a1a1a"/>
  <ellipse cx="285" cy="260" rx="12" ry="16" fill="#1a1a1a"/>

  <path d="M175 235 Q195 222 215 235" stroke="#0a0a0a" stroke-width="6" stroke-linecap="round" fill="none"/>
  <path d="M265 235 Q285 222 305 235" stroke="#0a0a0a" stroke-width="6" stroke-linecap="round" fill="none"/>

  <path d="M225 275 Q240 290 255 275" stroke="#a86e3f" stroke-width="4" stroke-linecap="round" fill="none"/>

  <path d="M195 325 Q240 355 285 325 Q270 350 240 355 Q210 350 195 325 Z" fill="#8a4a2e"/>
  <path d="M200 328 Q240 348 280 328" stroke="#fff" stroke-width="4" stroke-linecap="round" fill="none" opacity="0.85"/>

  <path d="M150 260 Q140 300 155 330" stroke="#0a0a0a" stroke-width="10" stroke-linecap="round" fill="none"/>
  <path d="M330 260 Q340 300 325 330" stroke="#0a0a0a" stroke-width="10" stroke-linecap="round" fill="none"/>

  <path d="M170 420 Q240 460 310 420 L330 480 L150 480 Z" fill="#1f2937"/>
</svg>
